# 3ds Max Wavefront OBJ Exporter v0.97b - (c)2007 guruware
# File Created: 18.10.2017 23:14:35

mtllib 872618.mtl

#
# object Plane002
#

v  -26.2129 0.7037 25.3045
v  -24.5904 0.7037 24.1033
v  -24.5331 0.7037 22.3795
v  -26.2138 0.7037 22.3795
v  -19.9804 0.7037 22.3795
v  -19.9804 0.7037 22.7606
v  -14.3758 0.7037 22.8306
v  -14.3382 0.7037 22.3795
v  -6.2784 0.7037 23.7629
v  -5.2146 0.7037 23.8308
v  -5.2178 0.7037 22.3795
v  -6.3234 0.7037 22.3795
v  -4.3261 0.7037 23.4586
v  -4.0343 0.7037 22.3795
v  -22.8025 0.7037 22.9600
v  -22.8040 0.7037 22.3795
v  -27.6494 0.7037 22.3795
v  -30.6907 0.7037 22.3795
v  -30.7042 0.7037 23.0944
v  -30.5509 0.7037 23.4414
v  -27.6834 0.7037 23.5563
v  -27.7174 0.7037 25.5611
v  -35.6879 0.7037 24.5014
v  -35.7404 0.7037 24.6576
v  -30.7245 0.7037 24.5802
v  -30.7177 0.7037 23.7716
v  -35.7436 0.7037 22.3795
v  -35.7084 0.7037 22.5759
v  -30.7312 0.7037 25.3888
v  -35.6701 0.7037 24.8138
v  -35.6701 0.5037 24.8138
v  -30.7312 0.5037 25.3888
v  -27.7174 0.5037 25.5611
v  -26.2129 0.5037 25.3045
v  -24.5904 0.5037 24.1033
v  -22.8025 0.5037 22.9600
v  -19.9804 0.5037 22.7606
v  -14.3758 0.5037 22.8306
v  -6.2784 0.5037 23.7629
v  -5.2146 0.5037 23.8308
v  -4.3261 0.5037 23.4586
v  -4.0343 0.5037 22.3795
v  -5.2178 0.5037 22.3795
v  -6.3234 0.5037 22.3795
v  -14.3382 0.5037 22.3795
v  -19.9804 0.5037 22.3795
v  -22.8040 0.5037 22.3795
v  -24.5331 0.5037 22.3795
v  -26.2138 0.5037 22.3795
v  -27.6494 0.5037 22.3795
v  -30.6907 0.5037 22.3795
v  -35.7436 0.5037 22.3795
v  -35.7084 0.5037 22.5759
v  -30.7042 0.5037 23.0944
v  -30.5509 0.5037 23.4414
v  -30.7177 0.5037 23.7716
v  -35.6879 0.5037 24.5014
v  -35.7404 0.5037 24.6576
# 58 vertices

vn 0.2952 0.6585 0.6923
vn 0.3966 0.7149 0.5759
vn 0.0000 0.7071 -0.7071
vn 0.0202 0.7166 0.6972
vn -0.0442 0.7188 0.6938
vn -0.0635 0.7015 0.7099
vn 0.1246 0.6592 0.7416
vn 0.5901 0.6203 0.5167
vn 0.6552 0.5648 -0.5017
vn 0.2017 0.7671 0.6091
vn -0.3199 0.8392 0.4398
vn -0.5762 0.8172 -0.0149
vn 0.0000 1.0000 -0.0000
vn 0.0408 0.6826 0.7296
vn -0.5101 0.6062 -0.6102
vn -0.7729 0.6334 0.0383
vn -0.3288 0.8268 -0.4564
vn -0.6308 0.5686 -0.5279
vn -0.5477 0.5935 0.5897
vn -0.0617 0.7005 0.7109
vn -0.4674 0.6111 0.6388
vn -0.5905 0.0000 0.8070
vn -0.0864 0.0000 0.9963
vn 0.0559 0.0000 0.9984
vn 0.3923 0.0000 0.9198
vn 0.5672 0.0000 0.8236
vn 0.3143 0.0000 0.9493
vn 0.0290 0.0000 0.9996
vn -0.0635 0.0000 0.9980
vn -0.0891 0.0000 0.9960
vn 0.1657 0.0000 0.9862
vn 0.7524 0.0000 0.6588
vn 0.7940 0.0000 -0.6080
vn 0.0000 0.0000 -1.0000
vn -0.7669 0.0000 -0.6418
vn -0.6805 0.0000 0.7327
vn -0.5882 0.0000 0.8087
vn -0.9997 0.0000 -0.0259
vn -0.5845 0.0000 -0.8114
vn -0.6413 0.0000 -0.7673
vn -0.9988 0.0000 0.0496
# 41 vertex normals

vt 0.3500 0.2500 0.0000
vt 0.4000 0.2500 0.0000
vt 0.4000 0.5000 0.0000
vt 0.3500 0.5000 0.0000
vt 0.5000 0.5000 0.0000
vt 0.5000 0.2500 0.0000
vt 0.7500 0.2500 0.0000
vt 0.7500 0.5000 0.0000
vt 0.8333 0.2500 0.0000
vt 0.9167 0.2500 0.0000
vt 0.9167 0.5000 0.0000
vt 0.8333 0.5000 0.0000
vt 1.0000 0.2500 0.0000
vt 1.0000 0.5000 0.0000
vt 0.4500 0.2500 0.0000
vt 0.4500 0.5000 0.0000
vt 0.3000 0.5000 0.0000
vt 0.2500 0.5000 0.0000
vt 0.2500 0.4167 0.0000
vt 0.2500 0.3750 0.0000
vt 0.3000 0.3750 0.0000
vt 0.3000 0.2500 0.0000
vt 0.0000 0.3333 0.0000
vt 0.0000 0.2917 0.0000
vt 0.2500 0.2917 0.0000
vt 0.2500 0.3333 0.0000
vt 0.0000 0.5000 0.0000
vt 0.0000 0.4167 0.0000
vt 0.2500 0.2500 0.0000
vt 0.0000 0.2500 0.0000
# 30 texture coords

o Plane002
g Plane002
usemtl 07___Default
s 1
f 1/1/1 2/2/2 3/3/3 4/4/3 
f 5/5/3 6/6/4 7/7/5 8/8/3 
f 9/9/6 10/10/7 11/11/3 12/12/3 
f 10/10/7 13/13/8 14/14/9 11/11/3 
f 12/12/3 8/8/3 7/7/5 9/9/6 
f 15/15/10 6/6/4 5/5/3 16/16/3 
f 2/2/2 15/15/10 16/16/3 3/3/3 
f 17/17/3 18/18/3 19/19/11 20/20/12 21/21/13 
f 4/4/3 17/17/3 21/21/13 22/22/14 1/1/1 
f 23/23/15 24/24/16 25/25/13 26/26/17 
f 19/19/11 18/18/3 27/27/18 28/28/19 
f 20/20/12 26/26/17 25/25/13 29/29/20 22/22/14 21/21/13 
f 24/24/16 30/30/21 29/29/20 25/25/13 
s off
f 31/30/22 32/29/23 29/29/20 30/30/21 
f 32/29/23 33/22/24 22/22/14 29/29/20 
f 33/22/24 34/1/25 1/1/1 22/22/14 
f 34/1/25 35/2/26 2/2/2 1/1/1 
f 35/2/26 36/15/27 15/15/10 2/2/2 
f 36/15/27 37/6/28 6/6/4 15/15/10 
f 37/6/28 38/7/29 7/7/5 6/6/4 
f 38/7/29 39/9/30 9/9/6 7/7/5 
f 39/9/30 40/10/31 10/10/7 9/9/6 
f 40/10/31 41/13/32 13/13/8 10/10/7 
f 41/13/32 42/14/33 14/14/9 13/13/8 
f 42/14/33 43/11/34 11/11/3 14/14/9 
f 43/11/34 44/12/34 12/12/3 11/11/3 
f 44/12/34 45/8/34 8/8/3 12/12/3 
f 45/8/34 46/5/34 5/5/3 8/8/3 
f 46/5/34 47/16/34 16/16/3 5/5/3 
f 47/16/34 48/3/34 3/3/3 16/16/3 
f 48/3/34 49/4/34 4/4/3 3/3/3 
f 49/4/34 50/17/34 17/17/3 4/4/3 
f 50/17/34 51/18/34 18/18/3 17/17/3 
f 51/18/34 52/27/35 27/27/18 18/18/3 
f 52/27/35 53/28/36 28/28/19 27/27/18 
f 53/28/36 54/19/37 19/19/11 28/28/19 
f 54/19/37 55/20/38 20/20/12 19/19/11 
f 55/20/38 56/26/39 26/26/17 20/20/12 
f 56/26/39 57/23/40 23/23/15 26/26/17 
f 57/23/40 58/24/41 24/24/16 23/23/15 
f 58/24/41 31/30/22 30/30/21 24/24/16 
# 41 polygons

