# 3ds Max Wavefront OBJ Exporter v0.97b - (c)2007 guruware
# File Created: 19.11.2017 20:39:11

mtllib 868132.mtl

#
# object Cylinder004
#

v  -559.1628 137.1945 -674.1877
v  -563.8036 137.4931 -690.7955
v  -545.6675 138.0051 -719.3613
v  -527.2751 137.4931 -690.9288
v  -508.8828 136.9811 -662.4963
v  -545.4113 136.9812 -662.3630
v  -559.3123 137.7917 -707.4367
v  -527.4246 138.0904 -724.1778
v  -509.1390 138.0051 -719.4946
v  -490.7467 137.4931 -691.0621
v  -495.3875 137.7917 -707.6699
v  -495.2380 137.1945 -674.4210
v  -527.1257 136.8958 -657.6799
v  -495.2271 899.5841 -671.9961
v  -508.8719 899.3708 -660.0715
v  -508.8610 1661.7605 -657.6466
v  -527.1147 899.2855 -655.2549
v  -490.6395 1661.9312 -667.2130
v  -527.0825 1661.5898 -648.0802
v  -495.3766 900.1814 -705.2451
v  -490.7358 899.8828 -688.6372
v  -490.7249 1662.2725 -686.2123
v  -490.8103 1662.6138 -705.2118
v  -527.4137 900.4800 -721.7529
v  -509.1281 900.3947 -717.0697
v  -509.1172 1662.7844 -714.6448
v  -527.4242 1662.9551 -724.0779
v  -559.3014 900.1814 -705.0118
v  -545.6566 900.3947 -716.9364
v  -545.6457 1662.7844 -714.5115
v  -563.8672 1662.6138 -704.9452
v  -559.1519 899.5841 -671.7628
v  -563.7927 899.8828 -688.3707
v  -563.7818 1662.2725 -685.9458
v  -563.6964 1661.9312 -666.9464
v  -545.4004 899.3708 -659.9382
v  -545.3895 1661.7605 -657.5133
v  -419.8429 2334.7344 -715.4692
v  -391.1646 2378.3105 -686.2542
v  -321.4515 2302.8042 -651.5295
v  -350.7208 2284.3772 -686.3206
v  -335.7807 2174.3274 -686.2799
v  -384.7707 2262.9170 -714.9007
v  -368.6562 2412.4402 -651.4521
v  -304.0138 2174.3577 -651.4821
v  -376.2835 2174.3022 -715.4894
v  -525.0034 2401.1877 -715.1429
v  -524.8717 2462.8027 -685.8394
v  -440.5207 2484.4551 -651.2521
v  -452.7362 2440.0107 -686.0829
v  -466.9156 2388.2363 -714.7093
v  -524.7149 2511.0571 -650.9679
v  -630.1634 2334.7346 -714.7018
v  -658.5781 2378.3105 -685.2784
v  -608.9089 2484.4551 -650.6377
v  -597.0070 2440.0107 -685.5565
v  -583.0854 2388.2363 -714.2854
v  -680.7728 2412.4402 -650.3132
v  -673.7216 2174.3022 -714.4042
v  -713.9604 2174.3276 -684.9000
v  -727.9767 2302.8044 -650.0463
v  -699.0211 2284.3772 -685.0497
v  -665.2294 2262.9170 -713.8774
v  -745.4134 2174.3579 -649.8716
v  -645.1799 1990.9919 -719.9063
v  -669.1404 1954.2288 -684.8733
v  -727.9757 2045.9114 -649.8242
v  -699.0203 2064.2781 -684.8594
v  -665.2286 2085.6887 -713.7241
v  -693.1009 1917.4651 -649.8404
v  -321.4505 2045.9111 -651.3075
v  -350.7200 2064.2778 -686.1302
v  -380.5991 1954.2283 -685.9261
v  -384.7700 2085.6885 -714.7475
v  -356.3244 1917.4646 -651.0692
v  -404.8737 1990.9919 -720.7830
v  -525.1359 2174.2764 -744.6103
v  -460.8609 2272.2666 -733.5101
v  -428.3816 2235.3906 -731.0591
v  -434.2581 2174.2866 -733.5225
v  -525.0851 2312.8513 -733.3109
v  -485.0226 2321.8015 -730.9272
v  -589.3089 2272.2668 -733.0415
v  -565.1248 2321.8018 -730.6349
v  -615.9110 2174.2866 -732.8597
v  -621.7651 2235.3906 -730.3535
v  -589.3082 2076.3064 -732.8721
v  -621.7647 2113.1868 -730.2479
v  -525.0840 2035.7217 -733.0714
v  -585.1033 1953.0283 -720.0926
v  -565.1236 2026.7759 -730.3799
v  -525.0266 1915.0645 -720.2790
v  -460.8602 2076.3064 -733.3408
v  -464.9501 1953.0283 -720.5310
v  -485.0215 2026.7759 -730.6721
v  -428.3811 2113.1868 -730.9535
v  -331.5438 2174.3623 -646.0862
v  -346.8044 2286.7725 -646.1277
v  -408.7674 2351.4119 -678.9317
v  -373.6580 2269.8682 -678.9893
v  -404.1808 2250.6333 -705.7410
v  -360.6884 2174.3337 -678.9540
v  -388.1158 2382.7209 -646.0599
v  -434.3805 2312.5010 -706.2216
v  -396.8599 2174.3101 -706.2390
v  -451.0081 2445.7449 -645.8849
v  -524.8390 2424.7600 -678.5716
v  -462.2180 2404.9741 -678.7830
v  -474.9315 2358.5698 -705.5762
v  -524.6909 2469.0256 -645.6362
v  -524.9620 2369.7412 -705.9406
v  -598.3735 2445.7449 -645.3472
v  -640.9100 2351.4121 -678.0847
v  -587.4599 2404.9744 -678.3260
v  -574.9876 2358.5698 -705.2111
v  -661.2654 2382.7207 -645.0632
v  -615.5432 2312.5010 -705.5605
v  -702.5760 2286.7727 -644.8296
v  -688.9876 2174.3340 -677.7562
v  -676.0188 2269.8684 -677.8860
v  -645.7375 2250.6333 -704.8596
v  -717.8358 2174.3625 -644.6767
v  -653.0626 2174.3103 -705.3042
v  -702.5751 2061.9521 -644.6353
v  -640.9086 1997.2559 -677.7785
v  -676.0180 2078.7996 -677.7209
v  -645.7369 2097.9878 -704.7277
v  -661.2638 1966.0042 -644.7030
v  -615.5421 2036.1194 -705.3217
v  -598.3715 1902.9802 -644.8781
v  -524.8371 1923.9075 -678.1386
v  -587.4581 1943.6934 -677.9272
v  -574.9862 1990.0515 -704.8925
v  -524.6887 1879.6992 -645.1268
v  -524.9606 1978.8792 -705.6027
v  -451.0061 1902.9802 -645.4157
v  -408.7661 1997.2556 -678.6255
v  -462.2162 1943.6934 -678.3842
v  -474.9301 1990.0513 -705.2576
v  -388.1142 1966.0039 -645.6997
v  -434.3794 2036.1194 -705.9827
v  -346.8036 2061.9521 -645.9333
v  -373.6573 2078.7993 -678.8242
v  -404.1802 2097.9878 -705.6091
v  -469.9163 2258.3848 -722.3476
v  -442.0418 2226.7371 -720.2729
v  -525.0780 2174.2876 -731.7443
v  -447.0851 2174.2961 -722.3582
v  -525.0350 2293.2158 -722.1766
v  -490.6526 2300.8970 -720.1596
v  -580.1535 2258.3850 -721.9454
v  -559.3982 2300.8970 -719.9088
v  -602.9841 2174.2961 -721.7894
v  -608.0084 2226.7371 -719.6673
v  -580.1529 2090.2073 -721.8000
v  -608.0080 2121.8589 -719.5767
v  -525.0341 2055.3765 -721.9709
v  -559.3972 2047.6990 -719.6899
v  -469.9156 2090.2070 -722.2022
v  -490.6516 2047.6987 -719.9407
v  -442.0414 2121.8589 -720.1823
v  -378.3860 2397.5803 -648.7560
v  -334.1280 2294.7883 -648.8286
v  -317.7788 2174.3601 -648.7842
v  -524.7029 2490.0415 -648.3021
v  -445.7644 2465.0999 -648.5685
v  -671.0192 2397.5803 -647.6882
v  -603.6412 2465.0999 -647.9925
v  -731.6246 2174.3601 -647.2742
v  -715.2764 2294.7886 -647.4379
v  -671.0175 1951.1399 -647.3023
v  -715.2755 2053.9319 -647.2297
v  -608.9066 1864.2607 -650.1016
v  -524.7005 1858.6790 -647.7563
v  -603.6390 1883.6204 -647.4898
v  -524.7122 1811.0566 -650.3628
v  -440.5183 1864.2605 -650.7160
v  -378.3843 1951.1396 -648.3701
v  -445.7622 1883.6204 -648.0659
v  -334.1270 2053.9316 -648.6204
v  -423.4819 1789.6980 -659.1411
v  -474.6896 1763.0105 -654.1813
v  -525.8974 1736.3230 -649.2215
v  -447.8420 1826.8027 -712.9974
v  -435.6620 1808.2502 -686.0692
v  -526.2253 1789.0098 -722.1785
v  -487.0337 1807.9063 -717.5880
v  -604.5236 1826.8030 -712.4257
v  -565.3745 1807.9063 -717.3021
v  -628.3987 1789.6980 -658.3934
v  -616.4611 1808.2505 -685.4095
v  -577.1480 1763.0105 -653.8074
# 192 vertices

vn -0.6567 -0.6565 0.3804
vn -0.7579 -0.6523 -0.0047
vn -0.3772 -0.6405 -0.6597
vn -0.0000 -1.0000 -0.0032
vn 0.3772 -0.6642 0.6555
vn -0.3807 -0.6641 0.6528
vn -0.6601 -0.6429 -0.3797
vn -0.0034 -0.6360 -0.7621
vn 0.3807 -0.6406 -0.6570
vn 0.7579 -0.6525 0.0006
vn 0.6566 -0.6429 -0.3845
vn 0.6601 -0.6565 0.3756
vn 0.0034 -0.6634 0.7580
vn 0.8693 -0.0124 0.4950
vn 0.5070 -0.0215 0.8622
vn 0.4823 -0.2935 0.8299
vn 0.0066 -0.0214 0.9998
vn 0.7925 -0.3881 0.4768
vn -0.0531 -0.0610 0.9973
vn 0.8627 0.0055 -0.5049
vn 1.0000 -0.0059 -0.0072
vn 0.9717 -0.2362 -0.0024
vn 0.8156 -0.1943 -0.5414
vn -0.0066 0.0145 -0.9998
vn 0.4930 0.0096 -0.8695
vn 0.4977 0.0193 -0.8668
vn 0.0239 -0.0178 -0.9990
vn -0.8693 0.0055 -0.4950
vn -0.5070 0.0095 -0.8622
vn -0.4955 -0.1477 -0.8540
vn -0.8042 -0.2612 -0.5306
vn -0.8627 -0.0125 0.5048
vn -1.0000 -0.0060 0.0072
vn -0.9244 -0.3815 0.0002
vn -0.7596 -0.3444 0.5560
vn -0.4930 -0.0216 0.8694
vn -0.4976 0.0066 0.8666
vn 0.3425 0.4355 -0.8384
vn 0.4927 0.5565 -0.6766
vn 0.8386 0.4051 0.3588
vn 0.5841 0.3835 -0.7204
vn 0.6970 -0.0405 -0.7145
vn 0.6193 0.4580 -0.6439
vn 0.6065 0.7269 0.3119
vn 0.9568 -0.0027 0.2916
vn 0.5051 -0.0021 -0.8624
vn 0.0056 0.5951 -0.8123
vn 0.0321 0.7850 -0.6303
vn 0.3042 0.8595 0.3984
vn 0.1893 0.7235 -0.6743
vn 0.1620 0.7854 -0.6088
vn 0.0015 0.9393 0.3295
vn -0.3381 0.4508 -0.8329
vn -0.4420 0.6151 -0.6623
vn -0.2821 0.8667 0.3985
vn -0.2748 0.6997 -0.6700
vn -0.3411 0.7235 -0.6111
vn -0.6037 0.7269 0.3163
vn -0.5128 0.0180 -0.8588
vn -0.7034 0.0537 -0.7099
vn -0.8259 0.4260 0.3625
vn -0.6505 0.2681 -0.7150
vn -0.7303 0.2417 -0.6430
vn -0.9541 -0.0027 0.2986
vn -0.4430 -0.2154 -0.8672
vn -0.6879 -0.3951 -0.6034
vn -0.8623 -0.3323 0.3862
vn -0.7041 -0.2491 -0.6617
vn -0.5003 -0.1086 -0.8576
vn -0.7440 -0.5529 0.3827
vn 0.8667 -0.3488 0.3626
vn 0.6824 -0.1815 -0.7047
vn 0.6627 -0.4033 -0.6243
vn 0.6578 -0.1178 -0.7414
vn 0.7371 -0.5688 0.3742
vn 0.4667 -0.2268 -0.8509
vn -0.0045 0.0092 -0.9998
vn -0.2592 0.5905 -0.7731
vn -0.0347 0.6403 -0.7767
vn 0.1448 0.5986 -0.7965
vn -0.6150 0.2024 -0.7654
vn -0.4650 0.4750 -0.7544
vn -0.5048 -0.3426 -0.7875
vn -0.6342 -0.0763 -0.7686
vn -0.1519 -0.5839 -0.7888
vn -0.3586 -0.4958 -0.7837
vn 0.2785 -0.5592 -0.7722
vn 0.0278 -0.6260 -0.7699
vn 0.6635 -0.1340 -0.7333
vn -0.0527 -0.1283 -0.9882
vn 0.5460 -0.4444 -0.7030
vn -0.0065 -0.0621 -0.9969
vn 0.4957 0.4380 -0.7558
vn 0.0633 -0.1521 -0.9838
vn 0.6618 0.1870 -0.7280
vn 0.3541 0.5926 -0.7318
vn -0.2534 -0.0089 0.9670
vn -0.1602 -0.0558 0.9859
vn -0.4453 -0.6472 0.6278
vn -0.7696 -0.4403 0.4681
vn -0.4683 -0.2591 0.8479
vn -0.7360 -0.0733 0.6733
vn -0.1848 -0.2256 0.9594
vn -0.3461 -0.4472 0.8309
vn -0.5151 -0.0039 0.8565
vn -0.0892 -0.1862 0.9809
vn 0.0444 -0.8139 0.5915
vn -0.2615 -0.8765 0.4170
vn -0.1780 -0.5629 0.8151
vn 0.0043 -0.3194 0.9521
vn -0.0011 -0.6061 0.8042
vn 0.0456 -0.2155 0.9784
vn 0.5301 -0.5784 0.6290
vn 0.3217 -0.8602 0.4089
vn 0.1827 -0.5671 0.8115
vn 0.1935 -0.2256 0.9581
vn 0.3487 -0.4549 0.8263
vn 0.1547 -0.1132 0.9830
vn 0.7420 0.0609 0.6672
vn 0.8141 -0.3699 0.4538
vn 0.4791 -0.2583 0.8429
vn 0.2621 -0.0089 0.9651
vn 0.5227 -0.0119 0.8528
vn 0.1690 0.0376 0.9842
vn 0.4509 0.6357 0.6174
vn 0.7738 0.4318 0.4576
vn 0.4759 0.2435 0.8417
vn 0.1934 0.2079 0.9557
vn 0.3535 0.4319 0.8235
vn 0.0980 0.1681 0.9782
vn -0.0391 0.8030 0.5828
vn 0.2652 0.8689 0.4054
vn 0.1853 0.5479 0.8076
vn 0.0043 0.3018 0.9487
vn 0.0083 0.5913 0.7975
vn -0.0368 0.1974 0.9764
vn -0.5245 0.5668 0.6265
vn -0.3181 0.8527 0.4018
vn -0.1755 0.5521 0.8066
vn -0.1848 0.2079 0.9570
vn -0.3413 0.4397 0.8238
vn -0.1459 0.0950 0.9829
vn -0.8100 0.3615 0.4557
vn -0.4715 0.2427 0.8436
vn 0.2854 -0.6567 0.7080
vn -0.4950 -0.5216 0.7021
vn 0.0045 -0.0092 0.9998
vn -0.1749 -0.6714 0.7298
vn 0.6662 -0.2301 0.7131
vn -0.0609 -0.7423 0.6781
vn 0.5683 0.3617 0.7340
vn 0.4337 -0.6235 0.6600
vn 0.1815 0.6580 0.7212
vn 0.7336 -0.0554 0.6786
vn -0.2790 0.6436 0.7028
vn 0.5013 0.5087 0.6927
vn -0.6598 0.2169 0.7155
vn 0.0670 0.7299 0.6695
vn -0.5616 -0.3753 0.7422
vn -0.4278 0.6114 0.6563
vn -0.7275 0.0428 0.6834
vn 0.1510 0.1776 0.9697
vn 0.8489 0.5286 -0.0147
vn 0.2130 -0.0090 0.9771
vn 0.0043 0.2534 0.9634
vn 0.2582 0.9662 -0.0227
vn -0.1423 0.1776 0.9708
vn -0.3793 0.9254 -0.0253
vn -0.2042 -0.0090 0.9786
vn -0.9276 0.3736 -0.0135
vn -0.1078 -0.1256 0.9877
vn -0.8489 -0.5284 -0.0027
vn -0.0569 -0.1526 0.9886
vn -0.0081 -0.1928 0.9838
vn -0.1758 -0.9481 0.2792
vn 0.0017 -0.0411 0.9995
vn 0.0439 -0.1152 0.9938
vn 0.0973 -0.1480 0.9862
vn 0.4248 -0.8692 0.2668
vn 0.9312 -0.2775 0.2415
vn 0.6636 -0.7038 0.2651
vn 0.2875 -0.1948 0.9406
vn -0.0917 -0.0184 0.9955
vn 0.4601 -0.3341 -0.8171
vn 0.7619 -0.5924 -0.2527
vn 0.0905 0.0130 -0.9957
vn 0.3139 -0.1434 -0.9360
vn -0.4654 -0.2857 -0.8337
vn -0.3105 -0.0697 -0.9470
vn -0.6260 -0.6398 0.4548
vn -0.8108 -0.5277 -0.2460
vn -0.2972 -0.2866 0.9145
# 192 vertex normals

vt 0.3333 0.0000 -0.0000
vt 0.2083 0.0000 -0.5000
vt 0.1667 0.0000 -1.0000
vt 0.5000 0.0000 0.0000
vt 0.8333 0.0000 1.0000
vt 0.5417 0.0000 0.5000
vt 0.0833 0.0000 -1.0000
vt 0.2500 0.0000 -1.0000
vt 0.4583 0.0000 -0.5000
vt 0.7917 0.0000 0.5000
vt 0.6667 0.0000 0.0000
vt 0.9167 0.0000 1.0000
vt 0.7344 0.0000 0.9375
vt 0.9167 0.5000 1.0000
vt 0.8333 0.5000 1.0000
vt 0.8333 1.0000 1.0000
vt 0.7500 0.5000 1.0000
vt 0.9167 1.0000 1.0000
vt 0.7500 1.0000 1.0000
vt -0.0833 0.0000 1.0000
vt 0.0000 0.0000 1.0000
vt 0.0833 0.5000 1.0000
vt 0.0000 0.5000 1.0000
vt 0.0000 1.0000 1.0000
vt -0.0833 0.5000 1.0000
vt 0.0833 0.0000 1.0000
vt 0.0833 1.0000 1.0000
vt -0.0833 1.0000 1.0000
vt 0.1667 0.0000 1.0000
vt 0.2500 0.5000 1.0000
vt 0.1667 0.5000 1.0000
vt 0.1667 1.0000 1.0000
vt 0.2500 0.0000 1.0000
vt 0.2500 1.0000 1.0000
vt 0.3333 0.0000 1.0000
vt 0.4167 0.5000 1.0000
vt 0.3333 0.5000 1.0000
vt 0.3333 1.0000 1.0000
vt 0.4167 0.0000 1.0000
vt 0.4167 1.0000 1.0000
vt 0.5000 0.0000 1.0000
vt 0.5833 0.5000 1.0000
vt 0.5000 0.5000 1.0000
vt 0.5000 1.0000 1.0000
vt 0.5833 0.0000 1.0000
vt 0.5833 1.0000 1.0000
vt 0.6667 0.0000 1.0000
vt 0.6667 0.5000 1.0000
vt 0.6667 1.0000 1.0000
vt 0.1185 0.2552 0.0000
vt 0.1250 0.3750 0.0000
vt 0.0625 0.5000 0.0000
vt 0.0625 0.3750 0.0000
vt 0.0000 0.3750 0.0000
vt 0.0573 0.2604 0.0000
vt 0.1250 0.5000 0.0000
vt 0.0000 0.5000 0.0000
vt 0.0000 0.2500 0.0000
vt 0.2435 0.2552 0.0000
vt 0.2500 0.3750 0.0000
vt 0.1875 0.5000 0.0000
vt 0.1875 0.3750 0.0000
vt 0.1823 0.2604 0.0000
vt 0.2500 0.5000 0.0000
vt 0.3685 0.2552 0.0000
vt 0.3750 0.3750 0.0000
vt 0.3125 0.5000 0.0000
vt 0.3125 0.3750 0.0000
vt 0.3073 0.2604 0.0000
vt 0.3750 0.5000 0.0000
vt 0.4935 0.2552 0.0000
vt 0.5000 0.3750 0.0000
vt 0.4375 0.5000 0.0000
vt 0.4375 0.3750 0.0000
vt 0.4323 0.2604 0.0000
vt 0.5000 0.5000 0.0000
vt 0.6250 0.2500 0.0000
vt 0.6250 0.3750 0.0000
vt 0.5625 0.5000 0.0000
vt 0.5625 0.3750 0.0000
vt 0.5573 0.2604 0.0000
vt 0.6250 0.5000 0.0000
vt 1.0000 0.2500 0.0000
vt 1.0000 0.3750 0.0000
vt 0.9375 0.5000 0.0000
vt 0.9375 0.3750 0.0000
vt 0.8750 0.3750 0.0000
vt 0.9323 0.2604 0.0000
vt 1.0000 0.5000 0.0000
vt 0.8750 0.5000 0.0000
vt 0.8750 0.2500 0.0000
vt 0.0000 0.0000 0.0000
vt 0.0625 0.1250 0.0000
vt 0.0417 0.1667 0.0000
vt 0.0000 0.1250 0.0000
vt 0.1250 0.0000 0.0000
vt 0.1875 0.1250 0.0000
vt 0.1667 0.1667 0.0000
vt 0.1250 0.1250 0.0000
vt 0.2500 0.0000 0.0000
vt 0.3125 0.1250 0.0000
vt 0.2917 0.1667 0.0000
vt 0.2500 0.1250 0.0000
vt 0.3750 0.0000 0.0000
vt 0.4375 0.1250 0.0000
vt 0.4167 0.1667 0.0000
vt 0.3750 0.1250 0.0000
vt 0.5625 0.1250 0.0000
vt 0.5417 0.1667 0.0000
vt 0.5000 0.1250 0.0000
vt 0.6250 0.0000 0.0000
vt 0.6875 0.1250 0.0000
vt 0.6875 0.2500 0.0000
vt 0.6667 0.1667 0.0000
vt 0.6250 0.1250 0.0000
vt 0.7500 0.2500 0.0000
vt 0.7500 0.0000 0.0000
vt 0.8125 0.1250 0.0000
vt 0.8125 0.2500 0.0000
vt 0.7917 0.1667 0.0000
vt 0.7500 0.1250 0.0000
vt 0.8750 0.0000 0.0000
vt 0.9375 0.1250 0.0000
vt 0.9167 0.1667 0.0000
vt 0.8750 0.1250 0.0000
vt 0.6185 0.2552 0.0000
vt 0.6875 0.5000 0.0000
vt 0.7500 0.3750 0.0000
vt 0.6875 0.3750 0.0000
vt 0.6823 0.2604 0.0000
vt 0.7500 0.5000 0.0000
vt 0.7435 0.2552 0.0000
vt 0.8125 0.5000 0.0000
vt 0.8125 0.3750 0.0000
vt 0.8073 0.2604 0.0000
vt 0.8685 0.2552 0.0000
vt 0.8958 0.7500 0.5000
vt 0.8229 0.7500 0.5000
vt 0.7500 0.7500 0.5000
vt 0.4792 0.6250 0.5000
vt 0.4375 0.6875 0.5000
vt 0.3958 0.7500 0.5000
vt 0.5000 0.6250 0.5000
vt 0.4896 0.6250 0.5000
vt 0.5208 0.6250 0.5000
vt 0.5104 0.6250 0.5000
vt 0.6042 0.7500 0.5000
vt 0.5625 0.6875 0.5000
vt 0.6771 0.7500 0.5000
# 149 texture coords

o Cylinder004
g Cylinder004
usemtl 01___Default
s 1
f 1/1/1 2/2/2 3/3/3 4/4/4 
f 4/4/4 5/5/5 6/6/6 1/1/1 
f 2/2/2 7/7/7 3/3/3 
f 8/8/8 9/9/9 10/10/10 4/4/4 
f 4/4/4 3/3/3 8/8/8 
f 9/9/9 11/11/11 10/10/10 
f 12/12/12 5/5/5 4/4/4 10/10/10 
f 5/5/5 13/13/13 6/6/6 
s 8
f 13/13/13 5/5/5 14/14/14 15/15/15 
f 15/15/15 16/16/16 17/17/17 13/13/13 
f 5/5/5 12/12/12 14/14/14 
f 18/18/18 16/16/16 15/15/15 14/14/14 
f 16/16/16 19/19/19 17/17/17 
f 12/20/12 10/21/10 20/22/20 21/23/21 
f 21/23/21 22/24/22 14/25/14 12/20/12 
f 10/21/10 11/26/11 20/22/20 
f 23/27/23 22/24/22 21/23/21 20/22/20 
f 22/24/22 18/28/18 14/25/14 
f 11/26/11 9/29/9 24/30/24 25/31/25 
f 25/31/25 26/32/26 20/22/20 11/26/11 
f 9/29/9 8/33/8 24/30/24 
f 27/34/27 26/32/26 25/31/25 24/30/24 
f 26/32/26 23/27/23 20/22/20 
f 8/33/8 3/35/3 28/36/28 29/37/29 
f 29/37/29 30/38/30 24/30/24 8/33/8 
f 3/35/3 7/39/7 28/36/28 
f 31/40/31 30/38/30 29/37/29 28/36/28 
f 30/38/30 27/34/27 24/30/24 
f 7/39/7 2/41/2 32/42/32 33/43/33 
f 33/43/33 34/44/34 28/36/28 7/39/7 
f 2/41/2 1/45/1 32/42/32 
f 35/46/35 34/44/34 33/43/33 32/42/32 
f 34/44/34 31/40/31 28/36/28 
f 1/45/1 6/47/6 17/17/17 36/48/36 
f 36/48/36 37/49/37 32/42/32 1/45/1 
f 6/47/6 13/13/13 17/17/17 
f 19/19/19 37/49/37 36/48/36 17/17/17 
f 37/49/37 35/46/35 32/42/32 
s 1
f 38/50/38 39/51/39 40/52/40 41/53/41 
f 41/53/41 42/54/42 43/55/43 38/50/38 
f 39/51/39 44/56/44 40/52/40 
f 45/57/45 42/54/42 41/53/41 40/52/40 
f 42/54/42 46/58/46 43/55/43 
f 47/59/47 48/60/48 49/61/49 50/62/50 
f 50/62/50 39/51/39 51/63/51 47/59/47 
f 48/60/48 52/64/52 49/61/49 
f 44/56/44 39/51/39 50/62/50 49/61/49 
f 39/51/39 38/50/38 51/63/51 
f 53/65/53 54/66/54 55/67/55 56/68/56 
f 56/68/56 48/60/48 57/69/57 53/65/53 
f 54/66/54 58/70/58 55/67/55 
f 52/64/52 48/60/48 56/68/56 55/67/55 
f 48/60/48 47/59/47 57/69/57 
f 59/71/59 60/72/60 61/73/61 62/74/62 
f 62/74/62 54/66/54 63/75/63 59/71/59 
f 60/72/60 64/76/64 61/73/61 
f 58/70/58 54/66/54 62/74/62 61/73/61 
f 54/66/54 53/65/53 63/75/63 
f 65/77/65 66/78/66 67/79/67 68/80/68 
f 68/80/68 60/72/60 69/81/69 65/77/65 
f 66/78/66 70/82/70 67/79/67 
f 64/76/64 60/72/60 68/80/68 67/79/67 
f 60/72/60 59/71/59 69/81/69 
f 46/83/46 42/84/42 71/85/71 72/86/72 
f 72/86/72 73/87/73 74/88/74 46/83/46 
f 42/84/42 45/89/45 71/85/71 
f 75/90/75 73/87/73 72/86/72 71/85/71 
f 73/87/73 76/91/76 74/88/74 
f 77/92/77 78/93/78 43/55/43 79/94/79 
f 79/94/79 46/58/46 80/95/80 77/92/77 
f 78/93/78 38/50/38 43/55/43 
f 79/94/79 43/55/43 46/58/46 
f 77/96/77 81/97/81 51/63/51 82/98/82 
f 82/98/82 38/50/38 78/99/78 77/96/77 
f 81/97/81 47/59/47 51/63/51 
f 82/98/82 51/63/51 38/50/38 
f 77/100/77 83/101/83 57/69/57 84/102/84 
f 84/102/84 47/59/47 81/103/81 77/100/77 
f 83/101/83 53/65/53 57/69/57 
f 84/102/84 57/69/57 47/59/47 
f 77/104/77 85/105/85 63/75/63 86/106/86 
f 86/106/86 53/65/53 83/107/83 77/104/77 
f 85/105/85 59/71/59 63/75/63 
f 86/106/86 63/75/63 53/65/53 
f 77/4/77 87/108/87 69/81/69 88/109/88 
f 88/109/88 59/71/59 85/110/85 77/4/77 
f 87/108/87 65/77/65 69/81/69 
f 88/109/88 69/81/69 59/71/59 
f 77/111/77 89/112/89 90/113/90 91/114/91 
f 91/114/91 65/77/65 87/115/87 77/111/77 
f 89/112/89 92/116/92 90/113/90 
f 91/114/91 90/113/90 65/77/65 
f 77/117/77 93/118/93 94/119/94 95/120/95 
f 95/120/95 92/116/92 89/121/89 77/117/77 
f 93/118/93 76/91/76 94/119/94 
f 95/120/95 94/119/94 92/116/92 
f 77/122/77 80/123/80 74/88/74 96/124/96 
f 96/124/96 76/91/76 93/125/93 77/122/77 
f 80/123/80 46/83/46 74/88/74 
f 96/124/96 74/88/74 76/91/76 
f 97/57/97 98/52/98 99/51/99 100/53/100 
f 100/53/100 101/55/101 102/54/102 97/57/97 
f 98/52/98 103/56/103 99/51/99 
f 104/50/104 101/55/101 100/53/100 99/51/99 
f 101/55/101 105/58/105 102/54/102 
f 103/56/103 106/61/106 107/60/107 108/62/108 
f 108/62/108 109/63/109 99/51/99 103/56/103 
f 106/61/106 110/64/110 107/60/107 
f 111/59/111 109/63/109 108/62/108 107/60/107 
f 109/63/109 104/50/104 99/51/99 
f 110/64/110 112/67/112 113/66/113 114/68/114 
f 114/68/114 115/69/115 107/60/107 110/64/110 
f 112/67/112 116/70/116 113/66/113 
f 117/65/117 115/69/115 114/68/114 113/66/113 
f 115/69/115 111/59/111 107/60/107 
f 116/70/116 118/73/118 119/72/119 120/74/120 
f 120/74/120 121/75/121 113/66/113 116/70/116 
f 118/73/118 122/76/122 119/72/119 
f 123/71/123 121/75/121 120/74/120 119/72/119 
f 121/75/121 117/65/117 113/66/113 
f 122/76/122 124/79/124 125/78/125 126/80/126 
f 126/80/126 127/81/127 119/72/119 122/76/122 
f 124/79/124 128/82/128 125/78/125 
f 129/126/129 127/81/127 126/80/126 125/78/125 
f 127/81/127 123/71/123 119/72/119 
f 128/82/128 130/127/130 131/128/131 132/129/132 
f 132/129/132 133/130/133 125/78/125 128/82/128 
f 130/127/130 134/131/134 131/128/131 
f 135/132/135 133/130/133 132/129/132 131/128/131 
f 133/130/133 129/126/129 125/78/125 
f 134/131/134 136/133/136 137/87/137 138/134/138 
f 138/134/138 139/135/139 131/128/131 134/131/134 
f 136/133/136 140/90/140 137/87/137 
f 141/136/141 139/135/139 138/134/138 137/87/137 
f 139/135/139 135/132/135 131/128/131 
f 140/90/140 142/85/142 102/84/102 143/86/143 
f 143/86/143 144/88/144 137/87/137 140/90/140 
f 142/85/142 97/89/97 102/84/102 
f 105/83/105 144/88/144 143/86/143 102/84/102 
f 144/88/144 141/136/141 137/87/137 
f 105/58/105 101/55/101 145/93/145 146/94/146 
f 146/94/146 147/92/147 148/95/148 105/58/105 
f 101/55/101 104/50/104 145/93/145 
f 146/94/146 145/93/145 147/92/147 
f 104/50/104 109/63/109 149/97/149 150/98/150 
f 150/98/150 147/96/147 145/99/145 104/50/104 
f 109/63/109 111/59/111 149/97/149 
f 150/98/150 149/97/149 147/96/147 
f 111/59/111 115/69/115 151/101/151 152/102/152 
f 152/102/152 147/100/147 149/103/149 111/59/111 
f 115/69/115 117/65/117 151/101/151 
f 152/102/152 151/101/151 147/100/147 
f 117/65/117 121/75/121 153/105/153 154/106/154 
f 154/106/154 147/104/147 151/107/151 117/65/117 
f 121/75/121 123/71/123 153/105/153 
f 154/106/154 153/105/153 147/104/147 
f 123/71/123 127/81/127 155/108/155 156/109/156 
f 156/109/156 147/4/147 153/110/153 123/71/123 
f 127/81/127 129/126/129 155/108/155 
f 156/109/156 155/108/155 147/4/147 
f 129/126/129 133/130/133 157/112/157 158/114/158 
f 158/114/158 147/111/147 155/115/155 129/126/129 
f 133/130/133 135/132/135 157/112/157 
f 158/114/158 157/112/157 147/111/147 
f 135/132/135 139/135/139 159/118/159 160/120/160 
f 160/120/160 147/117/147 157/121/157 135/132/135 
f 139/135/139 141/136/141 159/118/159 
f 160/120/160 159/118/159 147/117/147 
f 141/136/141 144/88/144 148/123/148 161/124/161 
f 161/124/161 147/122/147 159/125/159 141/136/141 
f 144/88/144 105/83/105 148/123/148 
f 161/124/161 148/123/148 147/122/147 
s 2
f 45/57/45 40/52/40 162/56/162 163/52/163 
f 163/52/163 98/52/98 164/57/164 45/57/45 
f 40/52/40 44/56/44 162/56/162 
f 103/56/103 98/52/98 163/52/163 162/56/162 
f 98/52/98 97/57/97 164/57/164 
f 44/56/44 49/61/49 165/64/165 166/61/166 
f 166/61/166 106/61/106 162/56/162 44/56/44 
f 49/61/49 52/64/52 165/64/165 
f 110/64/110 106/61/106 166/61/166 165/64/165 
f 106/61/106 103/56/103 162/56/162 
f 52/64/52 55/67/55 167/70/167 168/67/168 
f 168/67/168 112/67/112 165/64/165 52/64/52 
f 55/67/55 58/70/58 167/70/167 
f 116/70/116 112/67/112 168/67/168 167/70/167 
f 112/67/112 110/64/110 165/64/165 
f 58/70/58 61/73/61 169/76/169 170/73/170 
f 170/73/170 118/73/118 167/70/167 58/70/58 
f 61/73/61 64/76/64 169/76/169 
f 122/76/122 118/73/118 170/73/170 169/76/169 
f 118/73/118 116/70/116 167/70/167 
f 64/76/64 67/79/67 171/82/171 172/79/172 
f 172/79/172 124/79/124 169/76/169 64/76/64 
f 67/79/67 70/82/70 171/82/171 
f 128/82/128 124/79/124 172/79/172 171/82/171 
f 124/79/124 122/76/122 169/76/169 
f 70/82/70 173/127/173 174/131/174 175/127/175 
f 175/127/175 130/127/130 171/82/171 70/82/70 
f 173/127/173 176/131/176 174/131/174 
f 134/131/134 130/127/130 175/127/175 174/131/174 
f 130/127/130 128/82/128 171/82/171 
f 176/131/176 177/133/177 178/90/178 179/133/179 
f 179/133/179 136/133/136 174/131/174 176/131/176 
f 177/133/177 75/90/75 178/90/178 
f 140/90/140 136/133/136 179/133/179 178/90/178 
f 136/133/136 134/131/134 174/131/174 
f 75/90/75 71/85/71 164/89/164 180/85/180 
f 180/85/180 142/85/142 178/90/178 75/90/75 
f 71/85/71 45/89/45 164/89/164 
f 97/89/97 142/85/142 180/85/180 164/89/164 
f 142/85/142 140/90/140 178/90/178 
s 4
f 19/19/19 16/16/16 181/137/181 182/138/182 
f 182/138/182 177/133/177 183/139/183 19/19/19 
f 16/16/16 18/18/18 181/137/181 
f 75/90/75 177/133/177 182/138/182 181/137/181 
f 177/133/177 176/131/176 183/139/183 
s 16
f 18/28/18 22/24/22 184/140/184 185/141/185 
f 185/141/185 73/87/73 181/142/181 18/28/18 
f 22/24/22 23/27/23 184/140/184 
f 76/91/76 73/87/73 185/141/185 184/140/184 
f 73/87/73 75/90/75 181/142/181 
s 4
f 23/27/23 26/32/26 186/143/186 187/144/187 
f 187/144/187 94/119/94 184/140/184 23/27/23 
f 26/32/26 27/34/27 186/143/186 
f 92/116/92 94/119/94 187/144/187 186/143/186 
f 94/119/94 76/91/76 184/140/184 
s 16
f 27/34/27 30/38/30 188/145/188 189/146/189 
f 189/146/189 90/113/90 186/143/186 27/34/27 
f 30/38/30 31/40/31 188/145/188 
f 65/77/65 90/113/90 189/146/189 188/145/188 
f 90/113/90 92/116/92 186/143/186 
s 4
f 31/40/31 34/44/34 190/147/190 191/148/191 
f 191/148/191 66/78/66 188/145/188 31/40/31 
f 34/44/34 35/46/35 190/147/190 
f 70/82/70 66/78/66 191/148/191 190/147/190 
f 66/78/66 65/77/65 188/145/188 
s 16
f 35/46/35 37/49/37 183/139/183 192/149/192 
f 192/149/192 173/127/173 190/147/190 35/46/35 
f 37/49/37 19/19/19 183/139/183 
f 176/131/176 173/127/173 192/149/192 183/139/183 
f 173/127/173 70/82/70 190/147/190 
# 138 polygons - 104 triangles

